<svg width="24" height="20" viewBox="0 0 24 20" fill="none" xmlns="http://www.w3.org/2000/svg">
<path fill-rule="evenodd" clip-rule="evenodd" d="M12 7.64173C10.5212 7.64173 9.32724 8.69524 9.32724 10.0001C9.32724 10.4254 9.45372 10.8221 9.67696 11.1659L13.3213 7.95031C12.9317 7.75334 12.482 7.64173 12 7.64173ZM7.91057 10.0001C7.91057 8.00489 9.73881 6.39173 12 6.39173C13.1313 6.39173 14.1497 6.79626 14.8903 7.44979C15.1669 7.69387 15.1669 8.0896 14.8903 8.33367L10.1114 12.5503C9.83482 12.7944 9.38632 12.7944 9.1097 12.5503C8.36904 11.8968 7.91057 10.9982 7.91057 10.0001Z" fill="white"/>
<path fill-rule="evenodd" clip-rule="evenodd" d="M2.79876 7.50587C5.05685 4.3739 8.36581 2.4834 12 2.4834C14.1247 2.4834 16.1607 3.13641 17.9232 4.30943C18.2355 4.51729 18.2978 4.90919 18.0622 5.18477C17.8266 5.46034 17.3824 5.51523 17.0701 5.30737C15.5271 4.28039 13.7854 3.7334 12 3.7334C8.9666 3.7334 6.06125 5.3094 3.99379 8.17718L3.9932 8.178C3.65831 8.64093 3.46696 9.3036 3.46696 10.0042C3.46696 10.7049 3.65831 11.3675 3.9932 11.8305C4.70509 12.8164 5.52973 13.6609 6.41743 14.3345C6.71403 14.5596 6.7477 14.9542 6.49262 15.2159C6.23754 15.4776 5.79031 15.5073 5.49371 15.2823C4.49252 14.5225 3.57906 13.5833 2.79873 12.5026C2.28384 11.7906 2.05029 10.8784 2.05029 10.0042C2.05029 9.13003 2.28385 8.21788 2.79876 7.50587Z" fill="white"/>
<path fill-rule="evenodd" clip-rule="evenodd" d="M19.1588 6.12139C19.4637 5.90505 19.9095 5.94771 20.1547 6.21667C20.5173 6.6144 20.8735 7.04178 21.202 7.49851C21.7164 8.21038 21.9497 9.12209 21.9497 9.9959C21.9497 10.8701 21.7162 11.7823 21.2013 12.4943C18.9432 15.6262 15.6342 17.5167 12 17.5167C10.7377 17.5167 9.50179 17.2812 8.34403 16.8511C7.98348 16.7171 7.81427 16.3507 7.96608 16.0325C8.11789 15.7144 8.53323 15.5651 8.89378 15.699C9.88935 16.0689 10.939 16.2667 12 16.2667C15.0334 16.2667 17.9388 14.6907 20.0062 11.8229L20.0068 11.8221C20.3417 11.3592 20.5331 10.6965 20.5331 9.9959C20.5331 9.29527 20.3417 8.6326 20.0068 8.16967L20.0058 8.16829C19.711 7.75836 19.3872 7.36907 19.0508 7.00012C18.8057 6.73116 18.854 6.33773 19.1588 6.12139Z" fill="white"/>
<path fill-rule="evenodd" clip-rule="evenodd" d="M15.4435 9.96876C15.8282 10.0314 16.0825 10.3573 16.0116 10.6967C15.7128 12.1266 14.4007 13.2844 12.7801 13.548C12.3954 13.6106 12.026 13.3862 11.9551 13.0467C11.8841 12.7073 12.1385 12.3814 12.5232 12.3188C13.566 12.1491 14.4261 11.3902 14.6184 10.4701C14.6894 10.1306 15.0587 9.90617 15.4435 9.96876Z" fill="white"/>
<path fill-rule="evenodd" clip-rule="evenodd" d="M9.66755 12.0581C9.94417 12.3022 9.94417 12.6979 9.66755 12.942L4.94533 17.1087C4.66871 17.3528 4.22021 17.3528 3.94359 17.1087C3.66697 16.8646 3.66697 16.4689 3.94359 16.2248L8.66581 12.0581C8.94244 11.814 9.39093 11.814 9.66755 12.0581Z" fill="white"/>
<path fill-rule="evenodd" clip-rule="evenodd" d="M20.0564 2.89146C20.3331 3.13553 20.3331 3.53126 20.0564 3.77534L15.3342 7.94201C15.0576 8.18608 14.6091 8.18608 14.3325 7.94201C14.0559 7.69793 14.0559 7.3022 14.3325 7.05812L19.0547 2.89146C19.3313 2.64738 19.7798 2.64738 20.0564 2.89146Z" fill="white"/>
</svg>
