<svg width="53" height="53" viewBox="0 0 53 53" fill="none" xmlns="http://www.w3.org/2000/svg">
<path d="M26.5 2.89844C20.2427 2.90554 14.2436 5.39441 9.81902 9.81902C5.39441 14.2436 2.90554 20.2427 2.89844 26.5C4.19501 57.8107 48.8098 57.8016 50.1016 26.4998C50.0944 20.2425 47.6055 14.2435 43.1809 9.81895C38.7563 5.39438 32.7573 2.90554 26.5 2.89844ZM26.5 47.6172C20.9013 47.6108 15.5338 45.3839 11.5749 41.4251C7.61609 37.4662 5.3892 32.0987 5.38281 26.5C6.54302 -1.51479 46.4613 -1.50663 47.6172 26.5002C47.6108 32.0988 45.3839 37.4663 41.425 41.4251C37.4662 45.3839 32.0986 47.6108 26.5 47.6172Z" fill="white" fill-opacity="0.37"/>
<path d="M35.6594 17.3405C35.5441 17.2251 35.4072 17.1336 35.2565 17.0711C35.1058 17.0087 34.9442 16.9766 34.7811 16.9766C34.618 16.9766 34.4565 17.0087 34.3058 17.0711C34.1551 17.1336 34.0182 17.2251 33.9029 17.3405L26.4999 24.7435L19.0969 17.3405C18.864 17.1076 18.548 16.9767 18.2186 16.9767C17.8892 16.9767 17.5733 17.1076 17.3404 17.3405C17.1074 17.5734 16.9766 17.8893 16.9766 18.2188C16.9766 18.5482 17.1074 18.8641 17.3404 19.097L24.7433 26.5L17.3404 33.903C17.1074 34.1359 16.9766 34.4518 16.9766 34.7812C16.9766 35.1107 17.1074 35.4266 17.3404 35.6595C17.5733 35.8925 17.8892 36.0233 18.2186 36.0233C18.548 36.0233 18.864 35.8925 19.0969 35.6595L26.4999 28.2565L33.9029 35.6595C34.018 35.7751 34.1549 35.8667 34.3057 35.9291C34.4564 35.9916 34.618 36.0236 34.7811 36.0234C35.025 36.0195 35.2624 35.9443 35.4641 35.8072C35.6658 35.67 35.823 35.4769 35.9163 35.2515C36.0097 35.0261 36.0351 34.7784 35.9894 34.5388C35.9437 34.2992 35.829 34.0782 35.6593 33.903L28.2564 26.5L35.6594 19.097C35.7748 18.9817 35.8663 18.8448 35.9287 18.6941C35.9912 18.5434 36.0233 18.3819 36.0233 18.2188C36.0233 18.0556 35.9912 17.8941 35.9287 17.7434C35.8663 17.5927 35.7748 17.4558 35.6594 17.3405Z" fill="white" fill-opacity="0.37"/>
</svg>
